<svg xmlns="http://www.w3.org/2000/svg" xmlns:xlink="http://www.w3.org/1999/xlink" viewBox="0 0 72.6 71.68"><defs><style>.cls-1{fill:none;}.cls-2{fill:#75777c;}.cls-3{fill:#d6d6d6;}.cls-4{fill:#44a9e0;}.cls-5{clip-path:url(#clip-path);}.cls-6{fill:url(#무제_그라디언트_18);}.cls-7{clip-path:url(#clip-path-2);}.cls-8{clip-path:url(#clip-path-3);}</style><clipPath id="clip-path" transform="translate(0 0.49)"><path class="cls-1" d="M50.44,46.86h0c-6.08,0-9-4.93-6.57-11L58.36,0h0c6.08,0,9,4.93,6.56,11Z"/></clipPath><linearGradient id="무제_그라디언트_18" x1="0.82" y1="23.92" x2="71.31" y2="23.92" gradientUnits="userSpaceOnUse"><stop offset="0" stop-color="#2a8ebd"/><stop offset="0.47" stop-color="#516d9f"/><stop offset="1" stop-color="#867ea9"/></linearGradient><clipPath id="clip-path-2" transform="translate(0 0.49)"><path class="cls-1" d="M31.47,46.86h0c-6.08,0-9-4.93-6.56-11L39.39,0h0c6.09,0,9,4.93,6.57,11Z"/></clipPath><clipPath id="clip-path-3" transform="translate(0 0.49)"><path class="cls-1" d="M12.51,46.86h0c-6.08,0-9-4.93-6.56-11L20.43,0h0c6.08,0,9,4.93,6.57,11Z"/></clipPath></defs><g id="레이어_2" data-name="레이어 2"><g id="레이어_1-2" data-name="레이어 1"><path class="cls-2" d="M9.75,60.22,7.36,69.59a3.41,3.41,0,0,1-.42,1.18.93.93,0,0,1-.84.42H4.64a.9.9,0,0,1-.83-.42,3.21,3.21,0,0,1-.43-1.18L0,56.55a.29.29,0,0,1,.14-.38,1,1,0,0,1,.42-.09H2.37a.5.5,0,0,1,.52.43l2.76,11L8.39,56.64a1.35,1.35,0,0,1,.19-.4.39.39,0,0,1,.35-.16h1.92a.43.43,0,0,1,.36.14,1.22,1.22,0,0,1,.21.38l2.74,10.86,2.72-11a.45.45,0,0,1,.49-.39h1.49a.89.89,0,0,1,.45.12.29.29,0,0,1,.12.37l-3.33,13a3.41,3.41,0,0,1-.42,1.18.92.92,0,0,1-.83.42H13.38a.92.92,0,0,1-.83-.42,3.41,3.41,0,0,1-.42-1.18Z" transform="translate(0 0.49)"/><path class="cls-2" d="M22.05,71.19c-.35,0-.52-.18-.52-.54v-14c0-.36.17-.54.52-.54H32a.28.28,0,0,1,.21.1.42.42,0,0,1,.1.24v1.49a.33.33,0,0,1-.1.24.3.3,0,0,1-.21.09H24.55v3.95h7.24a.24.24,0,0,1,.2.11.32.32,0,0,1,.1.23V64a.3.3,0,0,1-.1.24.28.28,0,0,1-.2.09H24.55V69h7.89a.27.27,0,0,1,.2.11.37.37,0,0,1,.1.24v1.49a.29.29,0,0,1-.1.23.28.28,0,0,1-.2.09Z" transform="translate(0 0.49)"/><path class="cls-2" d="M61.9,71.19q-.51,0-.51-.54v-14q0-.54.51-.54h10a.29.29,0,0,1,.21.1.4.4,0,0,1,.09.24v1.49a.31.31,0,0,1-.3.33H64.41v3.95h7.24a.24.24,0,0,1,.2.11.32.32,0,0,1,.1.23V64a.3.3,0,0,1-.1.24.28.28,0,0,1-.2.09H64.41V69h7.88a.29.29,0,0,1,.21.11.37.37,0,0,1,.1.24v1.49a.29.29,0,0,1-.1.23.3.3,0,0,1-.21.09Z" transform="translate(0 0.49)"/><path class="cls-2" d="M45.25,56.08a.49.49,0,0,1,.38.16.54.54,0,0,1,.16.4V57a1,1,0,0,1-.12.46l-.27.45L38,69.33h7.77a.31.31,0,0,1,.21.11.36.36,0,0,1,.09.24v1.19a.29.29,0,0,1-.09.23.32.32,0,0,1-.21.09H35.12a.5.5,0,0,1-.39-.16.57.57,0,0,1-.15-.4V70.2a1,1,0,0,1,.12-.46l.27-.45L42.31,58h-7a.28.28,0,0,1-.2-.09.3.3,0,0,1-.1-.24V56.42a.36.36,0,0,1,.1-.24.26.26,0,0,1,.2-.1Z" transform="translate(0 0.49)"/><path class="cls-2" d="M48.81,56.62a.47.47,0,0,1,.52-.54h2a.47.47,0,0,1,.53.54V69H59a.27.27,0,0,1,.2.11.33.33,0,0,1,.1.24v1.49a.26.26,0,0,1-.1.23.28.28,0,0,1-.2.09H49.33a.47.47,0,0,1-.52-.54Z" transform="translate(0 0.49)"/><path class="cls-3" d="M60.78,31.17h4.79a0,0,0,0,1,0,0V52.52a0,0,0,0,1,0,0h-10a0,0,0,0,1,0,0V36.42a5.25,5.25,0,0,1,5.25-5.25Z" transform="translate(102.39 -18.21) rotate(90)"/><path class="cls-3" d="M52.71-7H58a0,0,0,0,1,0,0V18a0,0,0,0,1,0,0H47a0,0,0,0,1,0,0V-1.24A5.76,5.76,0,0,1,52.71-7Z" transform="translate(57.97 -46.46) rotate(90)"/><path class="cls-3" d="M1.37.49H6.63a5.76,5.76,0,0,1,5.76,5.76v41.1a0,0,0,0,1,0,0H7.13A5.76,5.76,0,0,1,1.37,41.6V.49A0,0,0,0,1,1.37.49Z"/><path class="cls-3" d="M20.31.49h5.26a5.76,5.76,0,0,1,5.76,5.76v41.1a0,0,0,0,1,0,0H26.07a5.76,5.76,0,0,1-5.76-5.76V.49A0,0,0,0,1,20.31.49Z"/><path class="cls-4" d="M12.51,46.86h0c-6.08,0-9-4.93-6.56-11L20.43,0h0c6.08,0,9,4.93,6.57,11Z" transform="translate(0 0.49)"/><path class="cls-4" d="M31.47,46.86h0c-6.08,0-9-4.93-6.56-11L39.39,0h0c6.09,0,9,4.93,6.57,11Z" transform="translate(0 0.49)"/><path class="cls-4" d="M50.44,46.86h0c-6.08,0-9-4.93-6.57-11L58.36,0h0c6.08,0,9,4.93,6.56,11Z" transform="translate(0 0.49)"/><g class="cls-5"><rect class="cls-6" x="0.82" width="70.49" height="47.85"/></g><g class="cls-7"><rect class="cls-6" x="0.82" width="70.49" height="47.85"/></g><g class="cls-8"><rect class="cls-6" x="0.82" width="70.49" height="47.85"/></g></g></g></svg>