<svg xmlns="http://www.w3.org/2000/svg" xmlns:xlink="http://www.w3.org/1999/xlink" viewBox="0 0 153.68 31.73"><defs><style>.cls-1{fill:none;}.cls-2{fill:#d6d6d6;}.cls-3{fill:#44a9e0;}.cls-4{clip-path:url(#clip-path);}.cls-5{fill:url(#무제_그라디언트_18);}.cls-6{clip-path:url(#clip-path-2);}.cls-7{clip-path:url(#clip-path-3);}.cls-8{fill:#75777c;}</style><clipPath id="clip-path" transform="translate(0.37 0.33)"><path class="cls-1" d="M32.54,31.08h0c-4,0-6-3.27-4.36-7.31L37.79,0h0c4,0,6,3.27,4.35,7.3Z"/></clipPath><linearGradient id="무제_그라디언트_18" y1="15.86" x2="46.75" y2="15.86" gradientUnits="userSpaceOnUse"><stop offset="0" stop-color="#2a8ebd"/><stop offset="0.47" stop-color="#516d9f"/><stop offset="1" stop-color="#867ea9"/></linearGradient><clipPath id="clip-path-2" transform="translate(0.37 0.33)"><path class="cls-1" d="M20,31.08h0c-4,0-6-3.27-4.35-7.31L25.21,0h0c4,0,6,3.27,4.36,7.3Z"/></clipPath><clipPath id="clip-path-3" transform="translate(0.37 0.33)"><path class="cls-1" d="M7.39,31.08h0c-4,0-6-3.27-4.36-7.31L12.64,0h0c4,0,6,3.27,4.35,7.3Z"/></clipPath></defs><g id="레이어_2" data-name="레이어 2"><g id="레이어_1-2" data-name="레이어 1"><path class="cls-2" d="M41.16,20.67h1.41a0,0,0,0,1,0,0V34.83a0,0,0,0,1,0,0H35.91a0,0,0,0,1,0,0V25.92A5.25,5.25,0,0,1,41.16,20.67Z" transform="translate(67.36 -11.16) rotate(90)"/><path class="cls-2" d="M36-4.64h1.55a0,0,0,0,1,0,0V11.94a0,0,0,0,1,0,0h-7.3a0,0,0,0,1,0,0V1.12A5.76,5.76,0,0,1,36-4.64Z" transform="translate(37.9 -29.9) rotate(90)"/><path class="cls-2" d="M.37.33H1.91A5.76,5.76,0,0,1,7.67,6.08V31.4a0,0,0,0,1,0,0H6.13A5.76,5.76,0,0,1,.37,25.64V.33A0,0,0,0,1,.37.33Z"/><path class="cls-2" d="M12.92.33h1.55a5.76,5.76,0,0,1,5.76,5.76V31.4a0,0,0,0,1,0,0H18.68a5.76,5.76,0,0,1-5.76-5.76V.33A0,0,0,0,1,12.92.33Z"/><path class="cls-3" d="M7.39,31.08h0c-4,0-6-3.27-4.36-7.31L12.64,0h0c4,0,6,3.27,4.35,7.3Z" transform="translate(0.37 0.33)"/><path class="cls-3" d="M20,31.08h0c-4,0-6-3.27-4.35-7.31L25.21,0h0c4,0,6,3.27,4.36,7.3Z" transform="translate(0.37 0.33)"/><path class="cls-3" d="M32.54,31.08h0c-4,0-6-3.27-4.36-7.31L37.79,0h0c4,0,6,3.27,4.35,7.3Z" transform="translate(0.37 0.33)"/><g class="cls-4"><rect class="cls-5" width="46.75" height="31.73"/></g><g class="cls-6"><rect class="cls-5" width="46.75" height="31.73"/></g><g class="cls-7"><rect class="cls-5" width="46.75" height="31.73"/></g><path class="cls-8" d="M65.27,11.35,61.91,24.48a4.82,4.82,0,0,1-.59,1.65,1.3,1.3,0,0,1-1.17.59H58.09a1.29,1.29,0,0,1-1.16-.59,4.82,4.82,0,0,1-.59-1.65L51.62,6.21a.42.42,0,0,1,.2-.53,1.38,1.38,0,0,1,.59-.14h2.51a.72.72,0,0,1,.73.61l3.87,15.37L63.36,6.33a1.53,1.53,0,0,1,.26-.56.57.57,0,0,1,.5-.23h2.69a.63.63,0,0,1,.5.2,1.75,1.75,0,0,1,.28.53l3.85,15.22,3.81-15.4a.64.64,0,0,1,.69-.55H78a1.23,1.23,0,0,1,.62.17.4.4,0,0,1,.17.53L74.16,24.48a4.82,4.82,0,0,1-.59,1.65,1.29,1.29,0,0,1-1.17.59H70.35a1.29,1.29,0,0,1-1.17-.59,4.82,4.82,0,0,1-.59-1.65Z" transform="translate(0.37 0.33)"/><path class="cls-8" d="M82.49,26.72c-.49,0-.73-.25-.73-.76V6.3c0-.5.24-.76.73-.76h14a.41.41,0,0,1,.29.16.48.48,0,0,1,.13.33V8.12a.42.42,0,0,1-.13.33.44.44,0,0,1-.29.12H86V14.1H96.14a.39.39,0,0,1,.28.16.49.49,0,0,1,.14.33v2.09a.42.42,0,0,1-.14.33.41.41,0,0,1-.28.12H86v6.56H97a.41.41,0,0,1,.29.16.49.49,0,0,1,.14.33v2.09a.42.42,0,0,1-.14.33.44.44,0,0,1-.29.12Z" transform="translate(0.37 0.33)"/><path class="cls-8" d="M138.33,26.72c-.48,0-.72-.25-.72-.76V6.3c0-.5.24-.76.72-.76h13.95a.41.41,0,0,1,.29.16.49.49,0,0,1,.14.33V8.12a.42.42,0,0,1-.14.33.44.44,0,0,1-.29.12H141.84V14.1H152a.41.41,0,0,1,.29.16.48.48,0,0,1,.13.33v2.09a.42.42,0,0,1-.13.33.44.44,0,0,1-.29.12H141.84v6.56h11a.39.39,0,0,1,.28.16.45.45,0,0,1,.14.33v2.09a.39.39,0,0,1-.14.33.41.41,0,0,1-.28.12Z" transform="translate(0.37 0.33)"/><path class="cls-8" d="M115,5.54a.73.73,0,0,1,.55.23.79.79,0,0,1,.21.56v.46a1.29,1.29,0,0,1-.17.63c-.11.2-.24.41-.38.63L104.77,24.12h10.89a.4.4,0,0,1,.29.15.48.48,0,0,1,.13.33v1.67a.42.42,0,0,1-.13.33.44.44,0,0,1-.29.12H100.8a.71.71,0,0,1-.54-.23.78.78,0,0,1-.21-.56v-.6a1.25,1.25,0,0,1,.17-.64c.11-.2.23-.41.37-.63L110.88,8.18H101a.46.46,0,0,1-.43-.46V6a.49.49,0,0,1,.14-.33.41.41,0,0,1,.29-.16Z" transform="translate(0.37 0.33)"/><path class="cls-8" d="M120,6.3c0-.5.24-.76.73-.76h2.72a.68.68,0,0,1,.76.76V23.69h10.07a.41.41,0,0,1,.29.16.49.49,0,0,1,.14.33v2.09a.42.42,0,0,1-.14.33.44.44,0,0,1-.29.12H120.72c-.49,0-.73-.25-.73-.76Z" transform="translate(0.37 0.33)"/></g></g></svg>