<svg xmlns="http://www.w3.org/2000/svg" xmlns:xlink="http://www.w3.org/1999/xlink" viewBox="0 0 104.18 90.66"><defs><style>.cls-1{fill:#fff;}.cls-2{fill:#d6d6d6;}.cls-3{fill:#44a9e0;}.cls-4{clip-path:url(#clip-path);}.cls-5{clip-path:url(#clip-path-2);}.cls-6{clip-path:url(#clip-path-3);}</style><clipPath id="clip-path" transform="translate(0.54 0.71)"><path class="cls-1" d="M71.42,68h0c-8.82,0-13.08-7.15-9.52-16l21-52h0C91.73,0,96,7.15,92.43,16Z"/></clipPath><clipPath id="clip-path-2" transform="translate(0.54 0.71)"><path class="cls-1" d="M43.92,68h0c-8.82,0-13.08-7.15-9.52-16l21-52h0c8.82,0,13.08,7.15,9.52,16Z"/></clipPath><clipPath id="clip-path-3" transform="translate(0.54 0.71)"><path class="cls-1" d="M16.42,68h0C7.6,68,3.33,60.81,6.9,52l21-52h0C36.73,0,41,7.15,37.42,16Z"/></clipPath></defs><g id="레이어_2" data-name="레이어 2"><g id="레이어_1-2" data-name="레이어 1"><path class="cls-1" d="M10.36,87.71H8.8L6.63,79.24H6.54L4.37,87.71H2.83L0,76.88H1.41l2.15,8.51h.09l2.11-8.51H7.41l2.12,8.53h.09l2.17-8.53h1.39Z" transform="translate(0.54 0.71)"/><path class="cls-1" d="M15.4,84.2a2.72,2.72,0,0,0,.76,1.93,2.32,2.32,0,0,0,1.73.74,2.12,2.12,0,0,0,1.46-.43,1.87,1.87,0,0,0,.61-.8h1.5a3.63,3.63,0,0,1-1.08,1.54,3.59,3.59,0,0,1-2.48.76,3.69,3.69,0,0,1-2.82-1.17,4.62,4.62,0,0,1,0-5.94,3.66,3.66,0,0,1,2.85-1.15,4,4,0,0,1,2.75,1.07,4.39,4.39,0,0,1,1.14,3.45Zm4.93-1a2.61,2.61,0,0,0-.7-1.75,2.32,2.32,0,0,0-1.74-.65,2.4,2.4,0,0,0-1.69.59,2.57,2.57,0,0,0-.77,1.81Z" transform="translate(0.54 0.71)"/><path class="cls-1" d="M23.25,87.73V86.55l5-5.51H23.69V79.89h6.23V81l-5,5.53H30.2v1.16Z" transform="translate(0.54 0.71)"/><path class="cls-1" d="M32.56,87.71V76.9h1.38V87.71Z" transform="translate(0.54 0.71)"/><path class="cls-1" d="M37.77,84.2a2.73,2.73,0,0,0,.77,1.93,2.3,2.3,0,0,0,1.72.74,2.17,2.17,0,0,0,1.47-.43,2,2,0,0,0,.61-.8h1.5a3.76,3.76,0,0,1-1.09,1.54,3.55,3.55,0,0,1-2.47.76,3.73,3.73,0,0,1-2.83-1.17,4.62,4.62,0,0,1,0-5.94,3.69,3.69,0,0,1,2.85-1.15A4,4,0,0,1,43,80.75a4.39,4.39,0,0,1,1.14,3.45Zm4.94-1A2.57,2.57,0,0,0,42,81.4a2.29,2.29,0,0,0-1.74-.65,2.44,2.44,0,0,0-1.69.59,2.61,2.61,0,0,0-.77,1.81Z" transform="translate(0.54 0.71)"/><path class="cls-1" d="M57.66,80.06a4.2,4.2,0,0,0-1-1.45,2.89,2.89,0,0,0-2.14-.7A3,3,0,0,0,52,79.09a5.08,5.08,0,0,0-.91,3.19A5.3,5.3,0,0,0,52,85.54a3,3,0,0,0,2.54,1.23A2.8,2.8,0,0,0,56.7,86a4,4,0,0,0,1-1.67l1.53,0a5.82,5.82,0,0,1-1.4,2.48A4.12,4.12,0,0,1,54.56,88a4.51,4.51,0,0,1-3.65-1.57,6.19,6.19,0,0,1-1.33-4.17,6,6,0,0,1,1.33-4.1,4.55,4.55,0,0,1,3.65-1.54,4.34,4.34,0,0,1,3.3,1.19,5.25,5.25,0,0,1,1.36,2.23Z" transform="translate(0.54 0.71)"/><path class="cls-1" d="M67.17,80.78a4.82,4.82,0,0,1,0,6,4.14,4.14,0,0,1-5.85,0,4.78,4.78,0,0,1,0-6,4.19,4.19,0,0,1,5.85,0ZM66.07,86a3.41,3.41,0,0,0,.71-2.23,3.31,3.31,0,0,0-.71-2.21,2.25,2.25,0,0,0-1.83-.83,2.3,2.3,0,0,0-1.86.83,3.36,3.36,0,0,0-.69,2.21A3.45,3.45,0,0,0,62.38,86a2.29,2.29,0,0,0,1.86.85A2.24,2.24,0,0,0,66.07,86Z" transform="translate(0.54 0.71)"/><path class="cls-1" d="M73.76,86.61V87.9a1.51,1.51,0,0,1-.13.67,3.21,3.21,0,0,1-.33.59,1.64,1.64,0,0,1-.62.55,2.24,2.24,0,0,1-.51.23l-.47-.55a1.9,1.9,0,0,0,.67-.38c.33-.24.5-.45.5-.61H71.7V86.61Z" transform="translate(0.54 0.71)"/><path class="cls-1" d="M78,87.7V76.9h1.39v9.56H85.2V87.7Z" transform="translate(0.54 0.71)"/><path class="cls-1" d="M89.05,87.73a1.34,1.34,0,0,1-.74-.2,2.12,2.12,0,0,1-.52-.46,1.37,1.37,0,0,1-.26-.56,4.27,4.27,0,0,1-.07-.92V81.1h-1V80l1,0V77.48h1.39V80L90,80V81.1H88.85v4.79a.63.63,0,0,0,.26.45.78.78,0,0,0,.45.2,3,3,0,0,0,.46,0l0,1.15Z" transform="translate(0.54 0.71)"/><path class="cls-1" d="M98.39,87.71v-.84a3.7,3.7,0,0,1-1.2.85A3.72,3.72,0,0,1,93,86.84a4.36,4.36,0,0,1-1.05-3,4.31,4.31,0,0,1,1.05-3,3.52,3.52,0,0,1,2.74-1.15,3.67,3.67,0,0,1,1.44.29,3.83,3.83,0,0,1,1.2.84V76.9h1.44V87.71ZM97.76,86a3.3,3.3,0,0,0,.63-2.15,3.23,3.23,0,0,0-.63-2.14A2.24,2.24,0,0,0,96,80.93a2.17,2.17,0,0,0-1.78.79,3.28,3.28,0,0,0-.63,2.1,3.35,3.35,0,0,0,.63,2.11,2.15,2.15,0,0,0,1.78.8A2.22,2.22,0,0,0,97.76,86Z" transform="translate(0.54 0.71)"/><path class="cls-1" d="M70.91,86.61v1.77H69V86.61Z" transform="translate(0.54 0.71)"/><path class="cls-1" d="M103.64,86.61v1.77h-1.89V86.61Z" transform="translate(0.54 0.71)"/><path class="cls-2" d="M87.72,45.21h5.64a0,0,0,0,1,0,0v31a0,0,0,0,1,0,0H78.81a0,0,0,0,1,0,0v-22A8.92,8.92,0,0,1,87.72,45.21Z" transform="translate(147.31 -24.68) rotate(90)"/><path class="cls-2" d="M75-9H81.2a0,0,0,0,1,0,0V25a0,0,0,0,1,0,0h-16a0,0,0,0,1,0,0V.78A9.79,9.79,0,0,1,75-9Z" transform="translate(81.74 -64.51) rotate(90)"/><path class="cls-2" d="M.8.71H7a9.79,9.79,0,0,1,9.79,9.79V68.68a0,0,0,0,1,0,0H10.59A9.79,9.79,0,0,1,.8,58.89V.71A0,0,0,0,1,.8.71Z"/><path class="cls-2" d="M28.26.71h6.19a9.79,9.79,0,0,1,9.79,9.79V68.68a0,0,0,0,1,0,0H38.05a9.79,9.79,0,0,1-9.79-9.79V.71a0,0,0,0,1,0,0Z"/><path class="cls-3" d="M16.42,68h0C7.6,68,3.33,60.81,6.9,52l21-52h0C36.73,0,41,7.15,37.42,16Z" transform="translate(0.54 0.71)"/><path class="cls-3" d="M43.92,68h0c-8.82,0-13.08-7.15-9.52-16l21-52h0c8.82,0,13.08,7.15,9.52,16Z" transform="translate(0.54 0.71)"/><path class="cls-3" d="M71.42,68h0c-8.82,0-13.08-7.15-9.52-16l21-52h0C91.73,0,96,7.15,92.43,16Z" transform="translate(0.54 0.71)"/><path class="cls-1" d="M71.42,68h0c-8.82,0-13.08-7.15-9.52-16l21-52h0C91.73,0,96,7.15,92.43,16Z" transform="translate(0.54 0.71)"/><g class="cls-4"><rect class="cls-1" width="102.23" height="69.39"/></g><path class="cls-1" d="M43.92,68h0c-8.82,0-13.08-7.15-9.52-16l21-52h0c8.82,0,13.08,7.15,9.52,16Z" transform="translate(0.54 0.71)"/><g class="cls-5"><rect class="cls-1" width="102.23" height="69.39"/></g><path class="cls-1" d="M16.42,68h0C7.6,68,3.33,60.81,6.9,52l21-52h0C36.73,0,41,7.15,37.42,16Z" transform="translate(0.54 0.71)"/><g class="cls-6"><rect class="cls-1" width="102.23" height="69.39"/></g></g></g></svg>