<svg xmlns="http://www.w3.org/2000/svg" xmlns:xlink="http://www.w3.org/1999/xlink" viewBox="0 0 175.48 31.73"><defs><style>.cls-1{fill:#fff;}.cls-2{fill:#d6d6d6;}.cls-3{fill:#44a9e0;}.cls-4{clip-path:url(#clip-path);}.cls-5{clip-path:url(#clip-path-2);}.cls-6{clip-path:url(#clip-path-3);}</style><clipPath id="clip-path" transform="translate(0.37 0.33)"><path class="cls-1" d="M32.54,31.08h0c-4,0-6-3.27-4.36-7.31L37.79,0h0c4,0,6,3.27,4.35,7.3Z"/></clipPath><clipPath id="clip-path-2" transform="translate(0.37 0.33)"><path class="cls-1" d="M20,31.08h0c-4,0-6-3.27-4.35-7.31L25.21,0h0c4,0,6,3.27,4.36,7.3Z"/></clipPath><clipPath id="clip-path-3" transform="translate(0.37 0.33)"><path class="cls-1" d="M7.39,31.08h0c-4,0-6-3.27-4.36-7.31L12.64,0h0c4,0,6,3.27,4.35,7.3Z"/></clipPath></defs><g id="레이어_2" data-name="레이어 2"><g id="레이어_1-2" data-name="레이어 1"><path class="cls-2" d="M41.16,20.67h1.41a0,0,0,0,1,0,0V34.83a0,0,0,0,1,0,0H35.91a0,0,0,0,1,0,0V25.92A5.25,5.25,0,0,1,41.16,20.67Z" transform="translate(67.36 -11.16) rotate(90)"/><path class="cls-2" d="M36-4.64h1.55a0,0,0,0,1,0,0V11.94a0,0,0,0,1,0,0h-7.3a0,0,0,0,1,0,0V1.12A5.76,5.76,0,0,1,36-4.64Z" transform="translate(37.9 -29.9) rotate(90)"/><path class="cls-2" d="M.37.33H1.91A5.76,5.76,0,0,1,7.67,6.08V31.4a0,0,0,0,1,0,0H6.13A5.76,5.76,0,0,1,.37,25.64V.33A0,0,0,0,1,.37.33Z"/><path class="cls-2" d="M12.92.33h1.55a5.76,5.76,0,0,1,5.76,5.76V31.4a0,0,0,0,1,0,0H18.68a5.76,5.76,0,0,1-5.76-5.76V.33A0,0,0,0,1,12.92.33Z"/><path class="cls-3" d="M7.39,31.08h0c-4,0-6-3.27-4.36-7.31L12.64,0h0c4,0,6,3.27,4.35,7.3Z" transform="translate(0.37 0.33)"/><path class="cls-3" d="M20,31.08h0c-4,0-6-3.27-4.35-7.31L25.21,0h0c4,0,6,3.27,4.36,7.3Z" transform="translate(0.37 0.33)"/><path class="cls-3" d="M32.54,31.08h0c-4,0-6-3.27-4.36-7.31L37.79,0h0c4,0,6,3.27,4.35,7.3Z" transform="translate(0.37 0.33)"/><path class="cls-1" d="M32.54,31.08h0c-4,0-6-3.27-4.36-7.31L37.79,0h0c4,0,6,3.27,4.35,7.3Z" transform="translate(0.37 0.33)"/><g class="cls-4"><rect class="cls-1" width="46.75" height="31.73"/></g><path class="cls-1" d="M20,31.08h0c-4,0-6-3.27-4.35-7.31L25.21,0h0c4,0,6,3.27,4.36,7.3Z" transform="translate(0.37 0.33)"/><g class="cls-5"><rect class="cls-1" width="46.75" height="31.73"/></g><path class="cls-1" d="M7.39,31.08h0c-4,0-6-3.27-4.36-7.31L12.64,0h0c4,0,6,3.27,4.35,7.3Z" transform="translate(0.37 0.33)"/><g class="cls-6"><rect class="cls-1" width="46.75" height="31.73"/></g><path class="cls-1" d="M59.39,18.48v6a.43.43,0,0,1-.09.26.28.28,0,0,1-.25.13H56.73a.25.25,0,0,1-.22-.13.39.39,0,0,1-.1-.26v-6H52.16c-.2,0-.29-.08-.29-.25V16.44c0-.19.09-.28.29-.28H64.44c.15,0,.23.09.23.28v1.79c0,.17-.08.25-.23.25Zm4-8.53A4.88,4.88,0,0,1,63,12a4.81,4.81,0,0,1-1.12,1.61,5.13,5.13,0,0,1-1.72,1.08,5.75,5.75,0,0,1-2.18.4,5.66,5.66,0,0,1-2.17-.4,5.19,5.19,0,0,1-1.71-1.08A5,5,0,0,1,52.93,12a5,5,0,0,1-.41-2,5,5,0,0,1,.41-2,5.14,5.14,0,0,1,1.13-1.62,5.24,5.24,0,0,1,1.71-1.1,5.86,5.86,0,0,1,2.17-.39,6,6,0,0,1,2.18.39,5.18,5.18,0,0,1,1.72,1.1A5,5,0,0,1,63,8,4.81,4.81,0,0,1,63.37,10Zm-2.91,0a2.93,2.93,0,0,0-.78-2.17A2.51,2.51,0,0,0,57.89,7a2.55,2.55,0,0,0-1,.18,2.27,2.27,0,0,0-.81.56,2.74,2.74,0,0,0-.56.92,3.72,3.72,0,0,0-.2,1.25,3.82,3.82,0,0,0,.2,1.28,2.74,2.74,0,0,0,.56.92,2.27,2.27,0,0,0,.81.56,2.55,2.55,0,0,0,1,.18,2.65,2.65,0,0,0,1-.18,2.4,2.4,0,0,0,.82-.56,3.12,3.12,0,0,0,.57-.92A3.58,3.58,0,0,0,60.46,10Zm8.35-5a.4.4,0,0,1,.25.09.31.31,0,0,1,.11.25v19.9a.34.34,0,0,1-.11.24.36.36,0,0,1-.25.1H66.54a.33.33,0,0,1-.26-.1.36.36,0,0,1-.09-.24V5.27a.31.31,0,0,1,.35-.34Z" transform="translate(0.37 0.33)"/><path class="cls-1" d="M104.63,19.39v5.73a.48.48,0,0,1-.09.27.3.3,0,0,1-.25.12H102a.28.28,0,0,1-.23-.12.48.48,0,0,1-.09-.27V19.39H94.89c-.19,0-.29-.08-.29-.25V17.28a.26.26,0,0,1,.29-.28H111.5c.15,0,.23.1.23.28v1.86c0,.17-.08.25-.23.25Zm5.19-13.78c.21,0,.31.12.31.36V7.66a.36.36,0,0,1-.09.24.3.3,0,0,1-.22.1h-5a6.2,6.2,0,0,0,.62,1.77,4.08,4.08,0,0,0,1,1.32A7.85,7.85,0,0,0,108,12.16a5.65,5.65,0,0,0,1.86.61.55.55,0,0,1,.45.24,1.22,1.22,0,0,1,.1.51v1.16a.32.32,0,0,1-.18.33.76.76,0,0,1-.43.06,8.77,8.77,0,0,1-2.18-.43,10.14,10.14,0,0,1-1.9-.84,7.17,7.17,0,0,1-1.66-1.31,6.9,6.9,0,0,1-1-1.31,3.72,3.72,0,0,1-.4.62,8.66,8.66,0,0,1-.6.69,7.26,7.26,0,0,1-.76.69,7.17,7.17,0,0,1-.9.62,11.06,11.06,0,0,1-1.86.8,9.33,9.33,0,0,1-2.07.47.65.65,0,0,1-.44-.05.33.33,0,0,1-.18-.34V13.52A1.07,1.07,0,0,1,96,13a.52.52,0,0,1,.44-.24,5.57,5.57,0,0,0,1.86-.61,7.85,7.85,0,0,0,1.57-1.07,4.33,4.33,0,0,0,1-1.32A6.91,6.91,0,0,0,101.49,8h-5a.33.33,0,0,1-.23-.1.36.36,0,0,1-.09-.24V6c0-.24.11-.36.32-.36Z" transform="translate(0.37 0.33)"/><path class="cls-1" d="M124.46,15.75a8.42,8.42,0,0,1-1.7-.55,8.14,8.14,0,0,1-1.3-.7l-.42-.32a4.61,4.61,0,0,1-.5-.43,5.5,5.5,0,0,1-.54-.6,5.62,5.62,0,0,1-.5-.81,5.24,5.24,0,0,1-1,1.4q-.54.47-.9.72a6.45,6.45,0,0,1-.58.34l-.76.36c-.28.12-.57.24-.88.34a6.79,6.79,0,0,1-.9.25.71.71,0,0,1-.43,0c-.12,0-.18-.14-.18-.3V14a.9.9,0,0,1,.1-.48,1,1,0,0,1,.44-.29,6.24,6.24,0,0,0,2.26-1.32,4.73,4.73,0,0,0,.68-.84,4.11,4.11,0,0,0,.43-1A6.1,6.1,0,0,0,118,9c0-.42.07-.89.07-1.43V5.72a.31.31,0,0,1,.12-.22.37.37,0,0,1,.26-.12h2.19a.35.35,0,0,1,.25.12.33.33,0,0,1,.11.22V7.56a8.52,8.52,0,0,0,.25,2.23,5,5,0,0,0,.93,1.8,5.26,5.26,0,0,0,2.39,1.64.68.68,0,0,1,.55.77v1.46c0,.16-.06.27-.19.3A.71.71,0,0,1,124.46,15.75Zm-6.71,4.37a.25.25,0,0,1-.17-.08.27.27,0,0,1-.08-.19V18a.27.27,0,0,1,.08-.19.25.25,0,0,1,.17-.08H128a3,3,0,0,1,2.14.74,2.64,2.64,0,0,1,.79,2v4.66a.4.4,0,0,1-.09.23.34.34,0,0,1-.27.11h-2.26a.36.36,0,0,1-.26-.11.36.36,0,0,1-.1-.23V21.6a1.42,1.42,0,0,0-.4-1.14,1.81,1.81,0,0,0-1.22-.34ZM130.9,16a.33.33,0,0,1-.11.25.4.4,0,0,1-.25.09h-2.3c-.21,0-.32-.11-.32-.34V5.27c0-.23.11-.34.32-.34h2.3a.4.4,0,0,1,.25.09.31.31,0,0,1,.11.25Z" transform="translate(0.37 0.33)"/><path class="cls-1" d="M144.43,8.61a4.13,4.13,0,0,1,1.15,1.51,5.36,5.36,0,0,1,.42,2.22,4.67,4.67,0,0,1-.26,1.55,4.91,4.91,0,0,1-1.84,2.38,5.64,5.64,0,0,1-1.4.67v1.95h6.25V5.27a.3.3,0,0,1,.34-.34h2.28a.4.4,0,0,1,.25.09.31.31,0,0,1,.11.25v19.9a.34.34,0,0,1-.11.24.36.36,0,0,1-.25.1h-2.28a.32.32,0,0,1-.25-.1.36.36,0,0,1-.09-.24V21.28H135.11q-.3,0-.3-.27V19.14c0-.16.1-.25.3-.25h4.48V17a5.16,5.16,0,0,1-1.47-.67A4.66,4.66,0,0,1,137,15.25a5,5,0,0,1-.75-1.35,4.49,4.49,0,0,1-.27-1.56,5.37,5.37,0,0,1,.41-2.22,4.09,4.09,0,0,1,1.13-1.51h-2.18a.29.29,0,0,1-.23-.1.36.36,0,0,1-.09-.24V6.77c0-.24.11-.36.32-.36h4.19V5a.28.28,0,0,1,.11-.22.39.39,0,0,1,.29-.1h2.23a.3.3,0,0,1,.25.1.33.33,0,0,1,.09.22V6.41h4.24c.21,0,.31.12.31.36v1.5a.36.36,0,0,1-.09.24.27.27,0,0,1-.22.1Zm-5.87,3.5a4,4,0,0,0,.2,1.3,3,3,0,0,0,.52,1,2.27,2.27,0,0,0,.77.62,2.07,2.07,0,0,0,.95.22,2.18,2.18,0,0,0,1.7-.84,3.4,3.4,0,0,0,.75-2.28,4,4,0,0,0-.2-1.28,3.14,3.14,0,0,0-.55-1,2.58,2.58,0,0,0-.78-.63A2.17,2.17,0,0,0,141,9a2.2,2.2,0,0,0-.95.21,2.43,2.43,0,0,0-.77.63,2.91,2.91,0,0,0-.52,1A4,4,0,0,0,138.56,12.11Z" transform="translate(0.37 0.33)"/><path class="cls-1" d="M163,10.52a9.48,9.48,0,0,0,1.09,4.57,5,5,0,0,0,2.41,2.07,1.13,1.13,0,0,1,.44.31.82.82,0,0,1,.1.47v1.7c0,.17-.06.27-.18.31a.79.79,0,0,1-.43,0,8.14,8.14,0,0,1-3.05-1.57,9.62,9.62,0,0,1-1.08-1.13,6.51,6.51,0,0,1-.83-1.35,5.89,5.89,0,0,1-1,1.59A10.32,10.32,0,0,1,159,18.76a7.12,7.12,0,0,1-1.19.68,11.85,11.85,0,0,1-1.32.5.59.59,0,0,1-.43,0c-.12,0-.18-.15-.18-.32v-1.7a.82.82,0,0,1,.1-.47,1.18,1.18,0,0,1,.45-.31,5,5,0,0,0,2.41-2.07,9.6,9.6,0,0,0,1.09-4.57V6.41a.31.31,0,0,1,.12-.23.39.39,0,0,1,.26-.12h2.3a.33.33,0,0,1,.25.12.31.31,0,0,1,.12.23ZM172,4.93a.4.4,0,0,1,.25.09.31.31,0,0,1,.11.25v5.87h2.39a.33.33,0,0,1,.24.1.34.34,0,0,1,.1.26V13a.29.29,0,0,1-.1.21.33.33,0,0,1-.24.1h-2.39v11.9a.34.34,0,0,1-.11.24.36.36,0,0,1-.25.1h-2.28a.32.32,0,0,1-.25-.1.36.36,0,0,1-.09-.24V5.27a.3.3,0,0,1,.34-.34Z" transform="translate(0.37 0.33)"/><path class="cls-1" d="M73.65,15.78c-.19,0-.29-.09-.29-.25V13.89a.26.26,0,0,1,.29-.28H90.26c.15,0,.22.1.22.28v1.64c0,.16-.07.25-.22.25ZM88.57,5.25c.22,0,.32.12.32.36V7.2a.36.36,0,0,1-.09.24.28.28,0,0,1-.23.1h-5v.25a1.8,1.8,0,0,0,.44.83,3.24,3.24,0,0,0,.72.61,6.52,6.52,0,0,0,.88.43c.31.12.6.23.88.32a8.42,8.42,0,0,0,1,.24c.35,0,.71.1,1.09.17a.54.54,0,0,1,.44.23,1.09,1.09,0,0,1,.11.52v1a.34.34,0,0,1-.18.33.8.8,0,0,1-.44,0,10.76,10.76,0,0,1-1.7-.17,14.77,14.77,0,0,1-1.69-.4,11.49,11.49,0,0,1-1.79-.77A4.06,4.06,0,0,1,81.91,10a4.06,4.06,0,0,1-1.39,1.21,11.49,11.49,0,0,1-1.79.77,15.29,15.29,0,0,1-1.69.4,10.76,10.76,0,0,1-1.7.17.8.8,0,0,1-.44,0,.34.34,0,0,1-.18-.33v-1a1.09,1.09,0,0,1,.11-.52.54.54,0,0,1,.44-.23c.38-.07.74-.12,1.09-.17a8.42,8.42,0,0,0,1-.24c.28-.09.57-.2.88-.32a5.87,5.87,0,0,0,.87-.43,3.08,3.08,0,0,0,.73-.61,1.8,1.8,0,0,0,.44-.83V7.54h-5a.29.29,0,0,1-.23-.1A.36.36,0,0,1,75,7.2V5.61c0-.24.11-.36.32-.36Z" transform="translate(0.37 0.33)"/><path class="cls-1" d="M88.38,24.3a.41.41,0,0,1,.41.41V26a.41.41,0,0,1-.41.41H75.66a.61.61,0,0,1-.61-.61V21.16a.54.54,0,0,1,.21-.46.86.86,0,0,1,.53-.15h9.82a.29.29,0,0,0,.3-.3v-.86a.47.47,0,0,0-.47-.47h-10a.4.4,0,0,1-.41-.4V17.2a.41.41,0,0,1,.41-.41H87.65a.76.76,0,0,1,.53.18.6.6,0,0,1,.2.5v3.74A1.24,1.24,0,0,1,87,22.6H78.1a.58.58,0,0,0-.59.59v.71a.4.4,0,0,0,.41.4Z" transform="translate(0.37 0.33)"/></g></g></svg>